<mxfile host="Electron" agent="Mozilla/5.0 (Windows NT 10.0; Win64; x64) AppleWebKit/537.36 (KHTML, like Gecko) draw.io/24.7.8 Chrome/128.0.6613.36 Electron/32.0.1 Safari/537.36" version="24.7.8">
  <diagram name="第 1 页" id="XBmXm2NvJZcS43w8qexH">
    <mxGraphModel dx="363" dy="211" grid="1" gridSize="10" guides="1" tooltips="1" connect="1" arrows="1" fold="1" page="1" pageScale="1" pageWidth="827" pageHeight="1169" math="0" shadow="0">
      <root>
        <mxCell id="0" />
        <mxCell id="1" parent="0" />
        <mxCell id="dfkcqGJk-I-hxeuoEkK4-114" value="" style="endArrow=none;html=1;rounded=0;fillColor=#f0a30a;strokeColor=#BD7000;" parent="1" edge="1">
          <mxGeometry width="50" height="50" relative="1" as="geometry">
            <mxPoint x="329" y="260" as="sourcePoint" />
            <mxPoint x="316" y="260" as="targetPoint" />
          </mxGeometry>
        </mxCell>
        <mxCell id="dfkcqGJk-I-hxeuoEkK4-5" value="" style="group" parent="1" vertex="1" connectable="0">
          <mxGeometry x="110" width="126.6" height="89.81" as="geometry" />
        </mxCell>
        <mxCell id="dfkcqGJk-I-hxeuoEkK4-12" value="" style="group" parent="dfkcqGJk-I-hxeuoEkK4-5" vertex="1" connectable="0">
          <mxGeometry width="126.6" height="89.81" as="geometry" />
        </mxCell>
        <mxCell id="dfkcqGJk-I-hxeuoEkK4-1" value="" style="shape=image;verticalLabelPosition=bottom;labelBackgroundColor=default;verticalAlign=top;aspect=fixed;imageAspect=0;image=data:image/webp,UklGRtAiAABXRUJQVlA4TMMiAAAvvwOqENWK2zaSHKlq8s96xYi7e+uNiJgAX5LRmSisiyPneFVaa/iLHJUNkSyay4PdzvL3p14lP6c2QzZS6h13tI8IVKKQrbrIcUeyIjZnAX94D8+2t237/9/zf1yv0bjta3agr7337h7v2XHfCq+7xmszRJsaMWO+spwoVQoFlsO+3Jg2Y6YZeBlCRP9lwbYV1dG+3UVMegBEZbjci/q+7L3//6aRxHO+f/fUe7/t5Rlc73V6xzY2uGBjG0ggybTrvVtKT77mdxK/K5/fNFZYiS6nIHzbcsoKckEbZZbcxjfzYzQREiBJMm3rnp3zbNvGt23btm3btm3btm3b9n88O9OSIMmu22YWrJVBPvqU7wMeASYn2Q7AKHLz/99Vni0zMzMzSAd9teWiw8lIDs5pq6m00bnhOHK5ga4i+u+EjSRHcs/Gu/v87OEjxFeR8XkCUIhQ2mhzCwfVZ+p3LU0VDe1zqVnaT/W9dkFfqQ7UC5w2gSRSYLsiAn7i3WhV32P/NhGgjBIMFCDa6GzuF2HBhws907kZjKyl5myIVMJwXlKfUfADwrHOpwq6+4ooWuFME9FW11amcqrqzTJqsK1w50xRICJmc4WAeif3XRXHqk4z0abXlsKqJSa2VFc74ThPzL6sEh0eaKKI+Z62vrJURRXem6AWo6+qmbBK+29CzH9q/0uxTPT9sUDC4s+Ven7Gzr7gAur0ZuEvlTJh7+HUCSwDeRacQJlqdY3V+AYxtkmUiwT/9zuCH+j4n/4UnCCmkiSlAOuVDUULjoAimjWFSjNEiq1e2D5QLMEVpLEh5d9OdMLQ9j1CpXYddwRnUNqdMNSSxHIyHz/q8AbEsBtUYOcAsLsote+ngj9QgXP6XSphps3amfcd6fAHhCIOwjKstBHmym9lgkNwXIW/EnfZiE4IllRFtXgEKpdgfql4IWEhOQPfs7ee7eSFRyCyrXp1XDfZmHOezq3rAjThEqhWTZqT8HOThdww0Wy93RFcAkV78A8ChwzkhB0aY+s45hP0bJhPfm3PxBPPKjTWBMhrPkGmQ/nX9GUiCRq7fKiaT6CKAS3jehSeVCyMROPoLq+gAMVq5oBkIo2T29wCTc/k/Yf/aP/R/qP9588TyLQZ9Mgctm/dnLZoIsiopuQ+y5LxQjimyKtnxq7duE2SuXX96vlje6J6EJyQwv3gv0dvyDPPb20EnRWM8G0jbTuvKTPWzMvL0pggg+zwY09azjX6TMs342JZCypIXdxseUtaQqMbT6dUEEH0wIu2HUqdnPMCDUQ3Ws4g15r2AglER4xoc8cLFBCfotpW2bQKAki5xwg3F1TgV9SPrSLcOlgL9CT1km6zZ3WAXtxjpJuquQU8XWmMtBsOMFEbEvAAOdExq6jX38iQC/Gv0W+6LnCTeNAaqHeYVMBlfcst0+4NQ77wuxTMcgBcOWoUnG6dwRZmKXhW2RkF3B4a1pvgFvfRsH+QO0jDBvST/z75T/uP9h/tP9p/tP9o/9H+o/1H+4/2H+0/2n+0/2j/0f6j/Uf7j/Yf7T/af7T/aP/R/qP9R/uP9h/tP9p/tP9o/9H+o/1H+4/2H+0/2n+0/2j/0f6j/Uf7j/Yf7T/af7T/aP/R/qP9R/uP9h/tP9p/tP9o/9H+o/1H+4/2H+0/2n+0/2j/0f6j/Uf7j/Yf7T/af7T/aP/R/qP9R/uP9h/tP9p/tP9o/9H+o/1H+4/2H+0/ujn207ArCW4h07BeyJVGwplxuHH9hIStRoGbDltFwCQw2LKeoV+VPXSGG8d9FHzmWMqAY5+j38EORAacOAEvfzlDjkPxinzXMy6gE+2l3mGxLhh0HGb7iXfYcAGe+AblDpV9U2bgMfstyq0JLhEglF8Jt7ouCMAx95NtnVFhDOB6fIJo63ej4QDXeZFeqzI7vUkYC6Quhs0qYp31rzbmaMBS6pmJxoRQZ7bCtTAiMBcqky3vSUWiO/ZlKpXCuMASNC8tEmnX6aozM3RAX8TuwC/y/J1154ckZwEQ6AuOKcq+YyM/iDIzG6s5JJ+VxgxAsC+EQ4xOl4mzLJmZIYSVTJhpuV0g/Wotn/yn/Uf7j/aff/jPH4No5p2HhZo+tMst0LLmkplIZGB6+ySvOQUGOs1wPKkYSIEwvbQK1eITKFKE9nPWA5HBQH5vh8bgcd7iEyj8wL75fWIiEaHewELGJ1CtbrgVn1RgIE8qNCOUdB18oil6MD0QkclCEiTFq2UozCPQRMWrU0WgElio0IQ/epDyCFTeKT287ICEiUg0UiwtNOERZ2qojkXdBBv1CYXg0GTIIbLOW3b6TGLOJhnJCFfL9Xs84urSSnyPAGZa5fCEO5zOdHbSwqREMhOJn6Y4mY/ucAYUq47SqJztKwR26hKhMnQGx0d8oc+FdaPqIhOGkjNOEIr7B/tcYchmCeV/bjIkWKokue7j3KxgnyMcjwLLroXzBLbqgwphuPuMH7TOq+NKW4zAWqmEcqR7bXysCBfginbgZ7hN0DDBXh1A9alvb8JAygF6h13/pVUBFwksVqSAcm//9yQbtvs/Waijvm0qcPmzjL0ZvMT61sNDkQ6zdn1PmtmYlB959YG7YLZGwHSJYJdtTTy8mnWOFSuv2+ra3x/2VDwIsOPenW5ruS788slwPakSYCZuZuDUKfOvg90qBt22uvp1TMpQxbkfLJorVXGa780ZYLtkAmAudK5Co9f0guaGxu7G/ja6pvc1tzZWTI1sNqynNJwBjBKwX3LORNteI5US/GVQ8tCkH5o3zeumfFLJNrpGv7fbKND8OOt/FCA53hiPdCpRG1/paDQey4TZPTZxhF8+mZzDuiMB/Di5UafRvtmnPqoxdnpMG1/1sY1RjX6NDjN1p1NLjvM/As9TwuCpE3Opc5MqD+w0F1OoYdAftPe1saulm6+rGxoNf+IKFIip5Iy7KMdMrSunjW28OlSyFavtr4fDVy342LZeB+OmAgHJ1GlPtbbuj4GGY4UV4QSFa3uKVrWJAM6net8nFC4RMw8Jf9JGEaqV8YVHLx0XMQ6OB/HIEyOPrxPcJbMY8ofnH2bpxPtRawSVDlkYEZgIpt1e6OUQz28pIkQwCB9RCfvowe/8zlATTrF8B43fCafiO8S8dpYQFPQzDZ0JTqFMs26H01E0Gdc+o2TgbN4rIxXcQtnwdmUUQpN1rk+vQbWE4Bltw2+Hz5os4zKhWti3dJ3xDEReDPazqqWZNgQsUoppXtoeCr4hhXfK7/0wfFQxrFqt0WaSCt6hvJ5YJw3z+8SqGyRJ3ct6a0mHeyCOx6XROEOM4iuE4sRxKvgH2aanq8VxlhhVaLoaZ//vZhwEkZZh3Q+c5Wtsmmusbwgw71ykDYzJTDKVcL3ItsYZHyHb9LPdwixqEpXjHoaCk2jYsW7csH+PSljDKYJftwaFBTdR2ncGMmctacm9G66lp7ZwFDKDy3+86IQxIXdhjQyRCo6iNIC+lTGnX1A5oxH9tsEZT0ETTQeoVYZKbLmLt6W7xPlJiHXXc/qwOmQHB6jWGCu8xVcQ6aDcHxExg6fVB9XP3UvPLOkIzkJWZPtnJSL5mGKHW9OroOx7VaVgH/Mb+BHBMbxSFNhoFwU83viIy3qEbSJTAC4SsLijc2CTKqS4jhml5C8QvAJeFmW1gJMnXlYndYOLsGLJ2cSqldrTT7qzBojnkqxe6pks8UbmW16DxSYSKyoFESS1p6lR4mnyGpB2qnryPnulWbGwJRmZxYsu8kx35K+131ImF949S+5g/8q4p1LOj894MrFvtHtjpbLx0FO/TU+5tNpvUtH2g+lYvbTXyGS79hgR8YJM+LkeWMYkfq2HFZLUao9BMh14MvZjVFYWdHluTXtj5ZISlRDYNq8FdmywEfQeh4R97qWf1D7s9NpREf5K+cMmrh11ebiu/hWbECXD2WkAyAaR5uLFTwNCLtVUsnsBImuWyHR7JaCFPFDzG2JS4OL3ASZfdh2VD7BnOf+oIh/lL6Rg7N6n6jK64hQxgP9FRjPC/lXkjI76vMKHpluGpxVVRLwJqvEe99qTynDLGvp8VarH0AcIINpl+Loq7j3vxDb8Fb/Ue6GU874k4g/QNJShHansfA+VgjJs1WSZ+ByWD8lD36jCzsGvQYTKRbG+hIHvVZIFpS6N7V3KmLivlHYkw09CqXbXLrzomOKl/Lgl6wyQa51P2De+U96+thF0Pw6lCKQc7dUjCnB2Gvt6wMmypSpFQ1gOfECW6C4gM3cOJvc3ib6DvYgBo78uEsLaY8LnPLjYVrqPDmvq8Esz88gnpW4PQ1AL/YaJTh4gSuV6RVZXQG+oieSL+58nZCY8B3MxUvvDzst4/yn2JoprkX4pXZjKxxFNiMaeVSmIC9TyKedfe5ReUqack32mNOxQV18XJ0Ex85YsGBeQb6iniB309e0Yw4S81H7TVIjvBbAkzzQBUOzTm0ewTF2LZOQXEUGXyPJcQfGMlC2fcrZmhiCNUXwQNshza9xSvf2kIitmypu+zBvqqX5EFKpJRV0pO6jDvqAO+/uf7YrAnhfw6mFEVCEOqLN6fQzLzPUueU0aI+I9So+Ihm/u6i3xuMWPqYJ+NkHKGdZF8RkdjoGNM+MN9AWL+QQp3a9Rh0e1imGQG4KrQpBS284PAjgJz6kqxIkWNvYCqv+BHtnD1P7HRKawKdbbhldL70opZ8jAzry0nWdKXwol6jVLVZuKCz/dMVnESVAuZ2cKatgIXT21TzE4z/QZyIPwj0Deo9mmrrbeAHkauVEJWOud65NVT5YQmaL7xaktbRFB7016R+9UVxcd7r0VlqHTLYDnnLDiPbhhtxnJAw10zHpPHqkSocwA+lvoh3HdEPIq1gqyW6QXULLiE31AIGTjzU2ibaG5GTM5crZItXDKOYh0flGmnJ3qOuwBOfbbXUdeOP2B+kvCt126dCN+8oj8k2cCAnrY2xfNgIKshVxFJ8J5pkUDCz4mNxsrASVt+h8eIfLgj0ipbOIdamHOEoo7SN0ewDo2jD1Q/5ZbInnOeRBKXK+z8QNMsa7AHcUlXXGwQyFIUhxBMyU79CdALtKbo1AKqP2D9u40iEyTztith/PUskelbh2Uj/h3Lyouc8PomAqDYqaxoPU+SuTFaQ50nFF/83a1H8GIoIhvNQF4xREpY2DGvhmEbE5FnA5dBeke+dfRUNCEOGI+NVw/pJ5WrTld4j3q1x6lV6SzjePw9q4BqWxap36PNsjxzWP1ZXvfGmbIC/sn6z0MX5EVh0koRSBJcQRNvzZMjRuntsUMTEjoxHNxB8DOwe15Ixr9ZY9qURvBnkVSKg+mcz+lZz08Us6I2qFF7EMV81NC9ROD4x1otc1qN9z/8yYYLfBJQIshNVo3A06e1o5uSggYvzbJo2aUUBXBdP7OxeYM2YKcIOpnhKfiA7VPHj9n5ri91VIra8y0tI25iWKZo4uTGa+1lEtvOSeZmyCkQ065zFsdTMzpUdVhrwWWMT0L85UeOg30heS4M8FJIqN/MG6BhJkBadc6GxPl8koJQ7IimP72VlxTWmTIwK54ZSHlTNnUTs/m1FpnlItnVEWjcuFijRCfIbOxKfcCJtc3LFyYbLBg4UwHRJzUSUZWeAPPhCFhEcxqJZyjFkw5F/uQv+QGh7SM4lQL2ixLhhRjU+2kWN1B5x1cRCVCjBEgKVlh8OaVKItgmncMx3eryGi5lLMTXf49X2iaGyntW/0warkYfVeAVPAjVDbE/uGEJbKl+D/C+otSzhzJBsaqnG2vpVLO71W2l/WaYxSaJiuCWS2By9RSffacQSr4kvLsonRZMVvoyz3UinCM5aER3jBEsVPrTGBM5Ky9dXW7I3gTPVPsT1W/lgmJCIV+xHd85VcqnEzuq3ekkw70ea0S8qzCdIz7mzblfAqp0mMaUbnkCeyRg1EXzWu4LhAo4rHOab0zCVHPI15qem9YWYmoI1KYEmZxucAV1Fgh5P4RVYjGblaYr0WKYKoEb9+E1FPji22l8sM5T/HyO5f6imVxlzxi7Fujr7fVyupoiVbFXbrYB8jl8zmZ7u9WtxGyQKtdd0aYqP9DRt3u1n241LTrlm10Mup/aKX4pdvZCpNVT3FiZxOXDR+cIH+f3X6EkBmkZDbRT7TGl2cJYQPalLNT77jA0IcuwGb7LmnOrEK82rMFMto+YOQhwavVAswwOm01DzY/n5y3eCUIkCKfpQsc5LTu9YCUY9J+fAs5l9ImvJGVTiKIpPB2sXErDL+W71E3vO03tCnndLuglSolfMwZFC0VC2+wp1Qu4QJlcOB2WSwBYoG8CMTNUEKEmbd8DRX1HjPveL5ESxiSlj9G8GSEqWVsf8BknrZBYOq/YAlgnYvsQjL14N/3ybCk9OrXHh9UT6sWcHt+n7TPVR1ACLR4V4YfK85gD3LKf9F9Ekq0a4MGbm4uWelGza1nKQNcdiLrh6IZ2P4ow40M9uMl2O85AEV99z5diDUp/hUEThKqxSuaNuXs04pqkxectUusOf7GTeWUoV/xHqJk2MxDWi3xKQhDgquUotvB06dbuisBKcuWsR8vxH4PyE7L/8jIdPbS6smQcU85n3Jwrm/P9xGXmkaZXDcOYtEhJeq4P4+2SF6ADorHEmxkXLFk06NZcNQtZmPnir6uEfJsNhv78TADyS5OQVGvgM4m3r64VxCICKWBxAM2vVO9A77PYO0S56/Q3XFYBL2SVBMBnklAdckyrJNWL4+bBaOqoFwNCuAh2ThagnKN3lxF5q7jXECUmBwgqyCg6rFfM95NYibO+UuSckbuzjOWs3aJNBeXEC/KnnE3HBdABfFkhmsa2ulwk4CxhF8IoENm7DhA5SCb/XhIbY/sqr3bMCCmvUg1etMW69GUc6xDLhG8/RNatwfKe50qhzXGv3XC8JYMge6GURXBX9aQMZfgZ7ATSinAv7Bkb6CAs9BqlbF1hG5mQVvwh5atqIL8mNKFOMPwPYrzHYMmGySzjZH+Gnq1Y1rsSH9nrtpD8A75rw4FHBKDEALe6fCSTNDVmcZfcOjTu6m3oDzNYj8e32x23REoGPQ2qUIMvuVFR4aM72zj0Md8b4rCtD5U783ZncbWuwdwfyeGaxCij3k7FWGmfbtpUJDNkYuhlPQHK/DLkB94Q7cAcCxWjsCeAUX99yC0EIXNiFR83V5IPds4bgJbL67qAMKLlWFc2SHGjAV8ziNWKZcPxLA30uuiif1mAaM48p0AemTn4gdIyvCYsx8PlANL/iNPQVcM3CczlX0pl4/r6K8TBK+kr2lSzozaltKsZ1xBJosYNZ7EgvF3hnU37PBXNBfXYQwapNfTpsEkFrQ+jaRhbDvEJuBinEVHJ07bwcU2iGxIZp0ySjdn7eNpkSF/5GDd3KbtS3eOXdXORpkBwBLb5zxEjzlVbRB/y8QuCQPutfiZmL8mTHFEAOuVE9MNV3j2eJewr5OfByVg481Nsq6u3iueIRGhMLifClqfhBK380zcB4SjrgO7ky7pf3UbdPJfcUfWHGCQal95EEOzURwJOduMF+KAyUDzdS5m6LCF+DGlK4Jpf78eHMcQibl45x9xoek0cwu4VA4Tz4cSeqykfB7sR8vYQ/wnE8e2JIyi+KJ5MOpmUhwR0t9VPcGyRysK9UMpoyvewvb2K4TW15fhBMUx5ewdmBB79QmgbxWs/3pIDzpPA4KdKEBlesOZ9WLh25L2TPPgijDFkfBBlFONMOTmBjSDWzGDg12MH1OqkAJ72isavwoCJwhhU6qUM9kPqV79Fb0UqCeVQ/dZOW/w7jnzrGGHnMBOh21PKJhjIqviCLCf6oVCzGlokr2lBJgx4/hZzBg/pnRFMIsXIpKx29NZ4Gu9N0VlWgfUx5Zn0IP3y9ZgSxB9aTPVIoqcXuECjCN61QBykKY4godRj6v/EtMFZypsDg/oTp9rqDKjYSjIuna1tngcN9cXU6ecG4X6E2/XkVVDzNwxMuyEEjyLxghoBXqPOxJ2uTUbSkGe4oio09Cd8SbwJj+GjdOWdUwCkGvpIVrOkvXhmk+8Qk4SaiUDremM+C6jUOKmPLh756YrH/TKoPQBS3hx90ccBL3euzM4/iY5koNoxRG6UjezGAcD6hrZ17Atk/yUETDde5PQ+oXZiBORIRVH8zbRG+0Har+xS5yFG8t4E1TnljAJ7gMZDvLHZJ/SQhPZmLCWP6RpjiBhLKXFy9icrbgLF6jORnc609nNnM0dp/YYxlDqPtdYVM6UrHbXSwi+J/st6yMI30VS5fueSejYactf4aBNVi4CTz7kuh02gwShewOq50GA7NWOvMiCxSWqsvk3lOvWGAGrsn01obNJ5ViMkLiZQJ1yNiYNXFIrztPWiF2RlItLbLzBEfcDzOnbFZ5LO0gcE/m79x44F1MhQgaOTIgZSEgHvZeNSUAxji5wySETMGB6fXFzxulMk04dbqP41OC6RPAOxWA77l658JFGx1tAxFHCRb1JRV5ISgQnQ0CBEZMAB5xFtU9nHUusF757XJazdILgN9/gABsarW+igv/QmVD0oDwuJiYjo+pnfTBF5bY/rnoM6xw8prOs6/yfSYSMh+tLucAzhk86YD88oQXwduMSxSLlHJb2eSHlzAFsGxaYoDNNjmqYroazFIeUs3mHD/xj5jjgnJWfgNBU/Zb5wHN6QkUGfcpZH76ojwvYJiywcAWUIc4g8uUsSTQT3f8GZ5yA+A6Mt9+kIzPE/t2MiAxJHJPoRybtfhdgv+fg4AFpiL4ee8SVLkstW/E9CAlQ+fhl2M0ss+iiy7CrPoPxcxCaJj1P6qVIm3yPmvW3PpGnnJP6VXrmJtGxdsqV+IwxzI00DlOaBXR6OullxHFyRtM25WBhTjsOqAYqxKZPAuz3lHc5EscZwZzfW2VkULq5gj7mxCXEPUYatOL7lqcXGRCDsfdXDcv/MLLPyEnabwa0HJM2I84ErGxEbtHoIDajMcBvad3xFSLjDKFazpeCpohB66uuNDxtag8B563lpyD5jRZnMP6pYTl9EvsfNLv0EgC2oKz0CIg1XHAB+Evlolhf3UCykOTeH53Me+Qp53T3TS4AjU3vhDKgvbXEYB8lC4bnJM+ZrJSzBIAl8LToZesY1/Eg9qHBwFhMdvoUwRpFv7JoyF0ipAz2jqDeWmB+Ag9oPyKIduAN7+NG3L2QwmYecocRzJE48iHteFatENGKLCMFN8VNo59t7OfVh0v0burdtZug3lri/iJoK952rEKzDmVKxPZEfaQg65twS7gZfPeBHInjRNXb5tkvk6T5F4CKDP24D3KvnmMtFbkKZJDNeLzPulXKiqrZgbRr8LvbJ4K47IUUmoQOfT9ZR7jgneiA/2DXbIVbJNOd3Na7qqZPHpaIWpLhK1xYby3EbqbbpVI9ZRgj4tpY7+MbARnW0CLEBcQBMvYJiCnWuxve99b/o4yMt+3PRVGZ3BHWxpYFrJThvCVIdh5nRJV26ofpEzPcxJ0UD6b2EJyEC7QPpj4umCADRfet6QS2B2MVfYwdhAA1Nm0fhoBuM9u3QHv4p9qQPZ2o1rMUEzibkV1DixRfTrGHi/2hBQaqPHIzbuaAXPcRI375RSnnGJSaVi3nbBZXhdB+twXQ9gNusUqYXi51iwwfrNSY7YVUhO2segsXfFA54F+ZeIfXu4JAZLxXTTlb9x8oTO5nECfryuENLRxYg3dc+QZ5+dnBtfWKfwIV2O6uDGtokeECwsUOjnmfkP9gHUH9dW63YI6hH7Dpqj3I6BwZPsCEj6LDu+24ZdmqC6Kz0jBG0N2JL/JLDoNKnpi+YJh8hAw6tpSe3XBd1+UsSXipbjrZbGPGUzBgrSH0dIUV+CCDgS2YYpu7+uA6g9ktII32XSeM0XWISZZ7boU5Ekf+FXs0ztO6ppyNExXkWZCzH0row7+AXbTFc2scRLsbrn92fzx150gXNWMJiXBZ1tAi4KlWOGiPwHNkkHWdf1fj1nFvlXsotNtVdetVSSgZT1WmfobZ7iQq5bgrh6PVB39mbQtzP+zwiejPrgcV258LdPNYJg+d/1TZjnVDRkYQZH0hSzmDl6nzvGKXyYLgLVJn0z7DwMwxi5s/t9m3sj6ZtKdnu4YW3EODiVNgGm5TmiYq9/3KiGjdXF8dh5gOZj/Dl3lF1xxcPC9g8MS78DNPwEXvTl8Xmh1y0+NHwRKx7GgkYCAoTeEyzLs/dVynCgJnCGHFrqaptmQHfvY8j7rkDM9jAcuFwpW7IeluuP3zm5bN9smklWCx3cU+OphBb6WMDHIEjLSr1H99KghExntU5Fx6+JbC9L4USsipFa8eN7RkVwlw7IQd7sD18kG3IO0848Wza2iByt1k+fo98M54uuUsWb+8sMiQ65JydsbG4AVSzrgA+PkCHb6J655kWlrwaRemvvnzmxE9ZiggFdMopwm2s9JbrVgABlfxMqkNjNXrUUFAIszppetMX2i63gt3CW6F0ahbp6eXrevsdfwamE3jfPgZLinRTvvh0qeVEBYDWH6HZNkbY28KICVEE419dkuufTlLOUNK/aSHOBSa7nQ+UC47TH62N6YAaW8wLrY7nTmM0APXw8dzP7ulYyjy4cYULBtvkeUwL7Gp6HYHy5flzHfmYPLft4aCMmRbvxKZMmes+TEtRvtYvLzgVKPvnD5ZATdfn2oJNw92Mv78lprZ7XVEizVZUyGoUMNuzZ+ya1fvjMdrTTmHwda3xSln8gvxN6sn4ubrCwlx/9n/8eor4JK9KIso1Ni8IDVTrM9T/msM2UNx7SAVPFPpoLgAa+IsIaw0n3Lmmmxp7GVX8q+lJfdmXaxHCylnvmkV6KfW8uUtWOP7qeCd6mwXmq++BpfEXE4vQ2dF+CeWWK/rnsln1GpTzl8g+5QHVQv+qXSgT1mtPYbRIQAPPUT2yEu/mry6EJnUQ+xvCylnHmo+vP2rq6G3B339IBV8VMMawtoYrcw5Qli1P9zipChsi/V41mXl5Swl71WOm/VkacqZi4aYI1Yu4XML5UnjVHBTsof2XzcmWSFEYiqPl2nojJ8i0gDFLStUEEjkSD+3OxQclS2Fu2HF5dtXCEaXClLBVdUpo3TrRw4yWS7lPB1q/1iccuaqXXrv5Ypg7qGwqZsKzkqvY38Pg5eGnCX4NRalnLmrFVZgb8ls4x+7WU8dUVhwV7aOfB0WW7ycpVuwpoRIBYfV0EXpomIuFMGUqOVzs15VhMciOgH09vNzFSNDXjJL5z0MBZ+lJNaHwDeREcHsNt/HaZUO9Dk52+cpccPtnw97vBZVdPayruXGCsvL4rDfwd8DLa+dvaUKv0XcKWutuDp7MhQcl+FEW6TdMtHjufS2tDvqvwIE19Xm5I7gvNIs9ZcOrosmr2rftSsOOjyXzgPtgjalgpTnkmcfhYn53GZWQTjuNVu6mJmFnDmbv7kK1eK4474GwVbkjHpyOcNgRXgt2SM3cyZHzvg85WyVQTNQLF6Las0iHIzPU/INOixuG3Datj945/DrlCBJfuLunA3BZdt+APvKLzyShdLT71W44ukcrSPlrgEK9lE+d8V3/loAiBRct3DjFLaOOOuAEZWbCHf73ss8/T8BqgM9XcY+R+3M9i30GxMAufz/9J6gmHelBgO8NChLddThPfAq5WxPqecUltUlQuhUG+V877/KQz9kqiX6TlptZtUHV+gQWKnBj6wusdO6JrLjTBOueb3CJrpWVrCxkYpV7aAjGQG16HCC/c5GiJ1NVae9jENe2xumKkrollH+GMy4mgS8nKz2FesAcy6zVYOV1qtCtovJThHcsRzI5vFWBRNVrE/VLdfq1d2Bz6iXFFat96iIAGjOetHCQG1l4ZL2TvvHG9HS1A/q9cIGdUyhsukF4PMksawAAA==;" parent="dfkcqGJk-I-hxeuoEkK4-12" vertex="1">
          <mxGeometry width="126.6" height="89.81" as="geometry" />
        </mxCell>
        <mxCell id="dfkcqGJk-I-hxeuoEkK4-8" value="USB" style="rounded=0;whiteSpace=wrap;html=1;" parent="dfkcqGJk-I-hxeuoEkK4-12" vertex="1">
          <mxGeometry x="38.30000000000001" y="69.81" width="50" height="20" as="geometry" />
        </mxCell>
        <mxCell id="dfkcqGJk-I-hxeuoEkK4-13" style="edgeStyle=orthogonalEdgeStyle;rounded=0;orthogonalLoop=1;jettySize=auto;html=1;entryX=0;entryY=0.5;entryDx=0;entryDy=0;exitX=0.5;exitY=0;exitDx=0;exitDy=0;endArrow=none;endFill=0;" parent="1" source="dfkcqGJk-I-hxeuoEkK4-10" target="dfkcqGJk-I-hxeuoEkK4-8" edge="1">
          <mxGeometry relative="1" as="geometry">
            <Array as="points">
              <mxPoint x="60" y="80" />
            </Array>
          </mxGeometry>
        </mxCell>
        <mxCell id="dfkcqGJk-I-hxeuoEkK4-14" value="" style="group" parent="1" vertex="1" connectable="0">
          <mxGeometry x="10" y="150" width="100" height="100" as="geometry" />
        </mxCell>
        <mxCell id="dfkcqGJk-I-hxeuoEkK4-6" value="" style="rounded=1;whiteSpace=wrap;html=1;" parent="dfkcqGJk-I-hxeuoEkK4-14" vertex="1">
          <mxGeometry width="100" height="100" as="geometry" />
        </mxCell>
        <mxCell id="dfkcqGJk-I-hxeuoEkK4-7" value="CAN" style="text;html=1;align=center;verticalAlign=middle;whiteSpace=wrap;rounded=0;" parent="dfkcqGJk-I-hxeuoEkK4-14" vertex="1">
          <mxGeometry x="20" y="35" width="60" height="30" as="geometry" />
        </mxCell>
        <mxCell id="dfkcqGJk-I-hxeuoEkK4-10" value="USB" style="rounded=0;whiteSpace=wrap;html=1;" parent="dfkcqGJk-I-hxeuoEkK4-14" vertex="1">
          <mxGeometry x="25.000000000000014" width="50" height="20" as="geometry" />
        </mxCell>
        <mxCell id="dfkcqGJk-I-hxeuoEkK4-19" value="" style="group" parent="dfkcqGJk-I-hxeuoEkK4-14" vertex="1" connectable="0">
          <mxGeometry x="70" y="80" width="10" height="20" as="geometry" />
        </mxCell>
        <mxCell id="dfkcqGJk-I-hxeuoEkK4-20" value="" style="ellipse;whiteSpace=wrap;html=1;aspect=fixed;" parent="dfkcqGJk-I-hxeuoEkK4-19" vertex="1">
          <mxGeometry x="1.5" y="13" width="7" height="7" as="geometry" />
        </mxCell>
        <mxCell id="dfkcqGJk-I-hxeuoEkK4-21" value="H" style="text;html=1;align=center;verticalAlign=middle;whiteSpace=wrap;rounded=0;" parent="dfkcqGJk-I-hxeuoEkK4-19" vertex="1">
          <mxGeometry width="10" height="10" as="geometry" />
        </mxCell>
        <mxCell id="dfkcqGJk-I-hxeuoEkK4-15" value="" style="ellipse;whiteSpace=wrap;html=1;aspect=fixed;" parent="dfkcqGJk-I-hxeuoEkK4-14" vertex="1">
          <mxGeometry x="26.5" y="93" width="7" height="7" as="geometry" />
        </mxCell>
        <mxCell id="dfkcqGJk-I-hxeuoEkK4-16" value="L" style="text;html=1;align=center;verticalAlign=middle;whiteSpace=wrap;rounded=0;" parent="dfkcqGJk-I-hxeuoEkK4-14" vertex="1">
          <mxGeometry x="25" y="80" width="10" height="10" as="geometry" />
        </mxCell>
        <mxCell id="dfkcqGJk-I-hxeuoEkK4-22" value="" style="group" parent="1" vertex="1" connectable="0">
          <mxGeometry x="136.6" y="150" width="150.4" height="200" as="geometry" />
        </mxCell>
        <mxCell id="dfkcqGJk-I-hxeuoEkK4-23" value="" style="rounded=1;whiteSpace=wrap;html=1;" parent="dfkcqGJk-I-hxeuoEkK4-22" vertex="1">
          <mxGeometry width="100" height="200" as="geometry" />
        </mxCell>
        <mxCell id="dfkcqGJk-I-hxeuoEkK4-31" value="F28069M" style="text;html=1;align=center;verticalAlign=middle;whiteSpace=wrap;rounded=0;" parent="dfkcqGJk-I-hxeuoEkK4-22" vertex="1">
          <mxGeometry x="20" y="70" width="60" height="60" as="geometry" />
        </mxCell>
        <mxCell id="dfkcqGJk-I-hxeuoEkK4-32" value="USB" style="rounded=0;whiteSpace=wrap;html=1;" parent="dfkcqGJk-I-hxeuoEkK4-22" vertex="1">
          <mxGeometry x="20" width="50" height="20" as="geometry" />
        </mxCell>
        <mxCell id="dfkcqGJk-I-hxeuoEkK4-34" value="" style="group" parent="dfkcqGJk-I-hxeuoEkK4-22" vertex="1" connectable="0">
          <mxGeometry x="11.400000000000006" y="180" width="20" height="20" as="geometry" />
        </mxCell>
        <mxCell id="dfkcqGJk-I-hxeuoEkK4-37" value="" style="group" parent="dfkcqGJk-I-hxeuoEkK4-34" vertex="1" connectable="0">
          <mxGeometry x="-10" width="30" height="20" as="geometry" />
        </mxCell>
        <mxCell id="dfkcqGJk-I-hxeuoEkK4-35" value="" style="ellipse;whiteSpace=wrap;html=1;aspect=fixed;" parent="dfkcqGJk-I-hxeuoEkK4-37" vertex="1">
          <mxGeometry x="11.5" y="13" width="7" height="7" as="geometry" />
        </mxCell>
        <mxCell id="dfkcqGJk-I-hxeuoEkK4-36" value="&lt;font style=&quot;font-size: 8px;&quot;&gt;CAN-L&lt;/font&gt;" style="text;html=1;align=center;verticalAlign=middle;whiteSpace=wrap;rounded=0;" parent="dfkcqGJk-I-hxeuoEkK4-37" vertex="1">
          <mxGeometry width="30" height="10" as="geometry" />
        </mxCell>
        <mxCell id="dfkcqGJk-I-hxeuoEkK4-38" value="" style="group" parent="dfkcqGJk-I-hxeuoEkK4-22" vertex="1" connectable="0">
          <mxGeometry x="30" y="180" width="30" height="20" as="geometry" />
        </mxCell>
        <mxCell id="dfkcqGJk-I-hxeuoEkK4-39" value="" style="ellipse;whiteSpace=wrap;html=1;aspect=fixed;" parent="dfkcqGJk-I-hxeuoEkK4-38" vertex="1">
          <mxGeometry x="11.5" y="13" width="7" height="7" as="geometry" />
        </mxCell>
        <mxCell id="dfkcqGJk-I-hxeuoEkK4-40" value="&lt;font style=&quot;font-size: 8px;&quot;&gt;CAN-H&lt;/font&gt;" style="text;html=1;align=center;verticalAlign=middle;whiteSpace=wrap;rounded=0;" parent="dfkcqGJk-I-hxeuoEkK4-38" vertex="1">
          <mxGeometry width="30" height="10" as="geometry" />
        </mxCell>
        <mxCell id="dfkcqGJk-I-hxeuoEkK4-47" value="" style="group" parent="dfkcqGJk-I-hxeuoEkK4-22" vertex="1" connectable="0">
          <mxGeometry x="80" y="30" width="18.5" height="10" as="geometry" />
        </mxCell>
        <mxCell id="dfkcqGJk-I-hxeuoEkK4-45" value="" style="ellipse;whiteSpace=wrap;html=1;aspect=fixed;" parent="dfkcqGJk-I-hxeuoEkK4-47" vertex="1">
          <mxGeometry x="12.5" y="3" width="7" height="7" as="geometry" />
        </mxCell>
        <mxCell id="dfkcqGJk-I-hxeuoEkK4-46" value="&lt;font style=&quot;font-size: 8px;&quot;&gt;40&lt;/font&gt;" style="text;html=1;align=center;verticalAlign=middle;whiteSpace=wrap;rounded=0;" parent="dfkcqGJk-I-hxeuoEkK4-47" vertex="1">
          <mxGeometry x="1" width="10" height="10" as="geometry" />
        </mxCell>
        <mxCell id="dfkcqGJk-I-hxeuoEkK4-50" value="" style="group" parent="dfkcqGJk-I-hxeuoEkK4-22" vertex="1" connectable="0">
          <mxGeometry x="81.39999999999998" y="45" width="18.5" height="10" as="geometry" />
        </mxCell>
        <mxCell id="dfkcqGJk-I-hxeuoEkK4-51" value="" style="ellipse;whiteSpace=wrap;html=1;aspect=fixed;" parent="dfkcqGJk-I-hxeuoEkK4-50" vertex="1">
          <mxGeometry x="11.5" y="3" width="7" height="7" as="geometry" />
        </mxCell>
        <mxCell id="dfkcqGJk-I-hxeuoEkK4-52" value="&lt;font style=&quot;font-size: 8px;&quot;&gt;39&lt;/font&gt;" style="text;html=1;align=center;verticalAlign=middle;whiteSpace=wrap;rounded=0;" parent="dfkcqGJk-I-hxeuoEkK4-50" vertex="1">
          <mxGeometry width="10" height="10" as="geometry" />
        </mxCell>
        <mxCell id="dfkcqGJk-I-hxeuoEkK4-55" value="" style="group" parent="dfkcqGJk-I-hxeuoEkK4-22" vertex="1" connectable="0">
          <mxGeometry x="81.39999999999998" y="60" width="18.5" height="10" as="geometry" />
        </mxCell>
        <mxCell id="dfkcqGJk-I-hxeuoEkK4-56" value="" style="ellipse;whiteSpace=wrap;html=1;aspect=fixed;" parent="dfkcqGJk-I-hxeuoEkK4-55" vertex="1">
          <mxGeometry x="11.5" y="3" width="7" height="7" as="geometry" />
        </mxCell>
        <mxCell id="dfkcqGJk-I-hxeuoEkK4-57" value="&lt;font style=&quot;font-size: 8px;&quot;&gt;38&lt;/font&gt;" style="text;html=1;align=center;verticalAlign=middle;whiteSpace=wrap;rounded=0;" parent="dfkcqGJk-I-hxeuoEkK4-55" vertex="1">
          <mxGeometry width="10" height="10" as="geometry" />
        </mxCell>
        <mxCell id="dfkcqGJk-I-hxeuoEkK4-33" style="edgeStyle=orthogonalEdgeStyle;rounded=0;orthogonalLoop=1;jettySize=auto;html=1;entryX=0.25;entryY=1;entryDx=0;entryDy=0;endArrow=none;endFill=0;" parent="1" source="dfkcqGJk-I-hxeuoEkK4-32" target="dfkcqGJk-I-hxeuoEkK4-8" edge="1">
          <mxGeometry relative="1" as="geometry">
            <Array as="points">
              <mxPoint x="180" y="90" />
            </Array>
          </mxGeometry>
        </mxCell>
        <mxCell id="dfkcqGJk-I-hxeuoEkK4-42" value="" style="group" parent="1" vertex="1" connectable="0">
          <mxGeometry x="200" y="330" width="30" height="20" as="geometry" />
        </mxCell>
        <mxCell id="dfkcqGJk-I-hxeuoEkK4-43" value="" style="ellipse;whiteSpace=wrap;html=1;aspect=fixed;" parent="dfkcqGJk-I-hxeuoEkK4-42" vertex="1">
          <mxGeometry x="11.5" y="13" width="7" height="7" as="geometry" />
        </mxCell>
        <mxCell id="dfkcqGJk-I-hxeuoEkK4-44" value="&lt;font style=&quot;font-size: 8px;&quot;&gt;GND&lt;/font&gt;" style="text;html=1;align=center;verticalAlign=middle;whiteSpace=wrap;rounded=0;" parent="dfkcqGJk-I-hxeuoEkK4-42" vertex="1">
          <mxGeometry width="30" height="10" as="geometry" />
        </mxCell>
        <mxCell id="dfkcqGJk-I-hxeuoEkK4-58" value="" style="rounded=1;whiteSpace=wrap;html=1;" parent="1" vertex="1">
          <mxGeometry x="280" y="110" width="160" height="80" as="geometry" />
        </mxCell>
        <mxCell id="dfkcqGJk-I-hxeuoEkK4-59" value="LA1010" style="text;html=1;align=center;verticalAlign=middle;whiteSpace=wrap;rounded=0;" parent="1" vertex="1">
          <mxGeometry x="360" y="140" width="60" height="20" as="geometry" />
        </mxCell>
        <mxCell id="dfkcqGJk-I-hxeuoEkK4-62" style="edgeStyle=orthogonalEdgeStyle;rounded=0;orthogonalLoop=1;jettySize=auto;html=1;entryX=1;entryY=0.5;entryDx=0;entryDy=0;endArrow=none;endFill=0;" parent="1" source="dfkcqGJk-I-hxeuoEkK4-61" target="dfkcqGJk-I-hxeuoEkK4-8" edge="1">
          <mxGeometry relative="1" as="geometry">
            <Array as="points">
              <mxPoint x="325" y="80" />
            </Array>
          </mxGeometry>
        </mxCell>
        <mxCell id="dfkcqGJk-I-hxeuoEkK4-61" value="USB" style="rounded=0;whiteSpace=wrap;html=1;" parent="1" vertex="1">
          <mxGeometry x="300" y="110" width="50" height="20" as="geometry" />
        </mxCell>
        <mxCell id="dfkcqGJk-I-hxeuoEkK4-78" value="" style="group;direction=west;flipH=1;" parent="1" vertex="1" connectable="0">
          <mxGeometry x="310" y="247" width="6" height="30" as="geometry" />
        </mxCell>
        <mxCell id="dfkcqGJk-I-hxeuoEkK4-75" value="" style="endArrow=none;html=1;rounded=0;strokeWidth=2;" parent="dfkcqGJk-I-hxeuoEkK4-78" edge="1">
          <mxGeometry width="50" height="50" relative="1" as="geometry">
            <mxPoint x="6" y="22" as="sourcePoint" />
            <mxPoint x="6" y="7" as="targetPoint" />
          </mxGeometry>
        </mxCell>
        <mxCell id="dfkcqGJk-I-hxeuoEkK4-77" value="" style="endArrow=none;html=1;rounded=0;strokeWidth=2;" parent="dfkcqGJk-I-hxeuoEkK4-78" edge="1">
          <mxGeometry width="50" height="50" relative="1" as="geometry">
            <mxPoint y="30" as="sourcePoint" />
            <mxPoint as="targetPoint" />
          </mxGeometry>
        </mxCell>
        <mxCell id="dfkcqGJk-I-hxeuoEkK4-100" style="edgeStyle=orthogonalEdgeStyle;rounded=0;orthogonalLoop=1;jettySize=auto;html=1;entryX=0.5;entryY=0;entryDx=0;entryDy=0;endArrow=none;endFill=0;fillColor=#60a917;strokeColor=#2D7600;strokeWidth=1;" parent="1" source="dfkcqGJk-I-hxeuoEkK4-45" target="dfkcqGJk-I-hxeuoEkK4-93" edge="1">
          <mxGeometry relative="1" as="geometry">
            <Array as="points">
              <mxPoint x="260" y="187" />
              <mxPoint x="260" y="230" />
              <mxPoint x="393" y="230" />
            </Array>
          </mxGeometry>
        </mxCell>
        <mxCell id="dfkcqGJk-I-hxeuoEkK4-102" style="edgeStyle=orthogonalEdgeStyle;rounded=0;orthogonalLoop=1;jettySize=auto;html=1;entryX=0.5;entryY=0;entryDx=0;entryDy=0;endArrow=none;endFill=0;fillColor=#d80073;strokeColor=#A50040;" parent="1" source="dfkcqGJk-I-hxeuoEkK4-56" target="dfkcqGJk-I-hxeuoEkK4-90" edge="1">
          <mxGeometry relative="1" as="geometry">
            <Array as="points">
              <mxPoint x="250" y="217" />
              <mxPoint x="250" y="240" />
              <mxPoint x="362" y="240" />
            </Array>
          </mxGeometry>
        </mxCell>
        <mxCell id="dfkcqGJk-I-hxeuoEkK4-107" value="" style="group" parent="1" vertex="1" connectable="0">
          <mxGeometry x="280" y="290" width="160.5" height="80" as="geometry" />
        </mxCell>
        <mxCell id="dfkcqGJk-I-hxeuoEkK4-79" value="" style="rounded=1;whiteSpace=wrap;html=1;" parent="dfkcqGJk-I-hxeuoEkK4-107" vertex="1">
          <mxGeometry width="160" height="80" as="geometry" />
        </mxCell>
        <mxCell id="dfkcqGJk-I-hxeuoEkK4-80" value="L298N" style="text;html=1;align=center;verticalAlign=middle;whiteSpace=wrap;rounded=0;" parent="dfkcqGJk-I-hxeuoEkK4-107" vertex="1">
          <mxGeometry x="53" y="60" width="60" height="20" as="geometry" />
        </mxCell>
        <mxCell id="dfkcqGJk-I-hxeuoEkK4-85" value="" style="group" parent="dfkcqGJk-I-hxeuoEkK4-107" vertex="1" connectable="0">
          <mxGeometry width="129" height="21" as="geometry" />
        </mxCell>
        <mxCell id="dfkcqGJk-I-hxeuoEkK4-112" style="edgeStyle=orthogonalEdgeStyle;rounded=0;orthogonalLoop=1;jettySize=auto;html=1;endArrow=none;endFill=0;" parent="dfkcqGJk-I-hxeuoEkK4-85" source="dfkcqGJk-I-hxeuoEkK4-81" edge="1">
          <mxGeometry relative="1" as="geometry">
            <mxPoint x="30" y="-30" as="targetPoint" />
            <Array as="points">
              <mxPoint x="17" y="-30" />
            </Array>
          </mxGeometry>
        </mxCell>
        <mxCell id="dfkcqGJk-I-hxeuoEkK4-81" value="" style="ellipse;whiteSpace=wrap;html=1;aspect=fixed;" parent="dfkcqGJk-I-hxeuoEkK4-85" vertex="1">
          <mxGeometry x="13" width="7" height="7" as="geometry" />
        </mxCell>
        <mxCell id="dfkcqGJk-I-hxeuoEkK4-82" value="&lt;font style=&quot;font-size: 8px;&quot;&gt;12V&lt;/font&gt;" style="text;html=1;align=center;verticalAlign=middle;whiteSpace=wrap;rounded=0;spacing=-2;spacingBottom=3;" parent="dfkcqGJk-I-hxeuoEkK4-85" vertex="1">
          <mxGeometry y="7" width="33" height="10" as="geometry" />
        </mxCell>
        <mxCell id="dfkcqGJk-I-hxeuoEkK4-86" value="" style="group" parent="dfkcqGJk-I-hxeuoEkK4-85" vertex="1" connectable="0">
          <mxGeometry x="32" width="97" height="21" as="geometry" />
        </mxCell>
        <mxCell id="dfkcqGJk-I-hxeuoEkK4-87" value="" style="ellipse;whiteSpace=wrap;html=1;aspect=fixed;" parent="dfkcqGJk-I-hxeuoEkK4-86" vertex="1">
          <mxGeometry x="13" width="7" height="7" as="geometry" />
        </mxCell>
        <mxCell id="dfkcqGJk-I-hxeuoEkK4-88" value="&lt;font style=&quot;font-size: 8px;&quot;&gt;GND&lt;/font&gt;" style="text;html=1;align=center;verticalAlign=middle;whiteSpace=wrap;rounded=0;spacing=-2;spacingBottom=3;" parent="dfkcqGJk-I-hxeuoEkK4-86" vertex="1">
          <mxGeometry x="3" y="7" width="27" height="10" as="geometry" />
        </mxCell>
        <mxCell id="dfkcqGJk-I-hxeuoEkK4-89" value="" style="group" parent="dfkcqGJk-I-hxeuoEkK4-86" vertex="1" connectable="0">
          <mxGeometry x="33" width="64" height="21" as="geometry" />
        </mxCell>
        <mxCell id="dfkcqGJk-I-hxeuoEkK4-90" value="" style="ellipse;whiteSpace=wrap;html=1;aspect=fixed;" parent="dfkcqGJk-I-hxeuoEkK4-89" vertex="1">
          <mxGeometry x="13" width="7" height="7" as="geometry" />
        </mxCell>
        <mxCell id="dfkcqGJk-I-hxeuoEkK4-91" value="&lt;font style=&quot;font-size: 8px;&quot;&gt;ENA&lt;/font&gt;" style="text;html=1;align=center;verticalAlign=middle;whiteSpace=wrap;rounded=0;spacing=-2;spacingBottom=3;" parent="dfkcqGJk-I-hxeuoEkK4-89" vertex="1">
          <mxGeometry x="3" y="7" width="27" height="10" as="geometry" />
        </mxCell>
        <mxCell id="dfkcqGJk-I-hxeuoEkK4-92" value="" style="group" parent="dfkcqGJk-I-hxeuoEkK4-89" vertex="1" connectable="0">
          <mxGeometry x="31" width="33" height="17" as="geometry" />
        </mxCell>
        <mxCell id="dfkcqGJk-I-hxeuoEkK4-93" value="" style="ellipse;whiteSpace=wrap;html=1;aspect=fixed;" parent="dfkcqGJk-I-hxeuoEkK4-92" vertex="1">
          <mxGeometry x="13" width="7" height="7" as="geometry" />
        </mxCell>
        <mxCell id="dfkcqGJk-I-hxeuoEkK4-94" value="&lt;span style=&quot;font-size: 8px;&quot;&gt;IN1&lt;/span&gt;" style="text;html=1;align=center;verticalAlign=middle;whiteSpace=wrap;rounded=0;spacing=-2;spacingBottom=3;" parent="dfkcqGJk-I-hxeuoEkK4-92" vertex="1">
          <mxGeometry x="13" y="7" width="7" height="10" as="geometry" />
        </mxCell>
        <mxCell id="dfkcqGJk-I-hxeuoEkK4-96" value="" style="ellipse;whiteSpace=wrap;html=1;aspect=fixed;" parent="dfkcqGJk-I-hxeuoEkK4-107" vertex="1">
          <mxGeometry x="135" width="7" height="7" as="geometry" />
        </mxCell>
        <mxCell id="dfkcqGJk-I-hxeuoEkK4-97" value="&lt;span style=&quot;font-size: 8px;&quot;&gt;IN2&lt;/span&gt;" style="text;html=1;align=center;verticalAlign=middle;whiteSpace=wrap;rounded=0;spacing=-2;spacingBottom=3;" parent="dfkcqGJk-I-hxeuoEkK4-107" vertex="1">
          <mxGeometry x="135" y="7" width="7" height="10" as="geometry" />
        </mxCell>
        <mxCell id="dfkcqGJk-I-hxeuoEkK4-115" value="" style="group" parent="dfkcqGJk-I-hxeuoEkK4-107" vertex="1" connectable="0">
          <mxGeometry x="141" y="21" width="18.5" height="10" as="geometry" />
        </mxCell>
        <mxCell id="dfkcqGJk-I-hxeuoEkK4-116" value="" style="ellipse;whiteSpace=wrap;html=1;aspect=fixed;" parent="dfkcqGJk-I-hxeuoEkK4-115" vertex="1">
          <mxGeometry x="11.5" y="3" width="7" height="7" as="geometry" />
        </mxCell>
        <mxCell id="dfkcqGJk-I-hxeuoEkK4-117" value="&lt;font style=&quot;font-size: 8px;&quot;&gt;OUT1&lt;/font&gt;" style="text;html=1;align=center;verticalAlign=middle;whiteSpace=wrap;rounded=0;" parent="dfkcqGJk-I-hxeuoEkK4-115" vertex="1">
          <mxGeometry x="-10" width="20" height="10" as="geometry" />
        </mxCell>
        <mxCell id="dfkcqGJk-I-hxeuoEkK4-119" value="" style="group" parent="dfkcqGJk-I-hxeuoEkK4-107" vertex="1" connectable="0">
          <mxGeometry x="141" y="40" width="18.5" height="10" as="geometry" />
        </mxCell>
        <mxCell id="dfkcqGJk-I-hxeuoEkK4-120" value="" style="ellipse;whiteSpace=wrap;html=1;aspect=fixed;" parent="dfkcqGJk-I-hxeuoEkK4-119" vertex="1">
          <mxGeometry x="11.5" y="3" width="7" height="7" as="geometry" />
        </mxCell>
        <mxCell id="dfkcqGJk-I-hxeuoEkK4-121" value="&lt;font style=&quot;font-size: 8px;&quot;&gt;OUT1&lt;/font&gt;" style="text;html=1;align=center;verticalAlign=middle;whiteSpace=wrap;rounded=0;" parent="dfkcqGJk-I-hxeuoEkK4-119" vertex="1">
          <mxGeometry x="-10" width="20" height="10" as="geometry" />
        </mxCell>
        <mxCell id="dfkcqGJk-I-hxeuoEkK4-108" style="edgeStyle=orthogonalEdgeStyle;rounded=0;orthogonalLoop=1;jettySize=auto;html=1;entryX=0.5;entryY=0;entryDx=0;entryDy=0;endArrow=none;endFill=0;fillColor=#f0a30a;strokeColor=#BD7000;" parent="1" source="dfkcqGJk-I-hxeuoEkK4-131" target="dfkcqGJk-I-hxeuoEkK4-87" edge="1">
          <mxGeometry relative="1" as="geometry">
            <Array as="points">
              <mxPoint x="329" y="250" />
              <mxPoint x="329" y="250" />
            </Array>
          </mxGeometry>
        </mxCell>
        <mxCell id="dfkcqGJk-I-hxeuoEkK4-124" value="M" style="ellipse;whiteSpace=wrap;html=1;aspect=fixed;" parent="1" vertex="1">
          <mxGeometry x="470" y="260" width="20" height="20" as="geometry" />
        </mxCell>
        <mxCell id="dfkcqGJk-I-hxeuoEkK4-125" style="edgeStyle=orthogonalEdgeStyle;rounded=0;orthogonalLoop=1;jettySize=auto;html=1;entryX=0.276;entryY=0.964;entryDx=0;entryDy=0;entryPerimeter=0;endArrow=none;endFill=0;" parent="1" source="dfkcqGJk-I-hxeuoEkK4-116" target="dfkcqGJk-I-hxeuoEkK4-124" edge="1">
          <mxGeometry relative="1" as="geometry" />
        </mxCell>
        <mxCell id="dfkcqGJk-I-hxeuoEkK4-126" style="edgeStyle=orthogonalEdgeStyle;rounded=0;orthogonalLoop=1;jettySize=auto;html=1;entryX=0.703;entryY=0.983;entryDx=0;entryDy=0;endArrow=none;endFill=0;entryPerimeter=0;" parent="1" source="dfkcqGJk-I-hxeuoEkK4-120" target="dfkcqGJk-I-hxeuoEkK4-124" edge="1">
          <mxGeometry relative="1" as="geometry" />
        </mxCell>
        <mxCell id="dfkcqGJk-I-hxeuoEkK4-64" value="" style="ellipse;whiteSpace=wrap;html=1;aspect=fixed;" parent="1" vertex="1">
          <mxGeometry x="301.5" y="183" width="7" height="7" as="geometry" />
        </mxCell>
        <mxCell id="dfkcqGJk-I-hxeuoEkK4-65" value="&lt;font style=&quot;font-size: 8px;&quot;&gt;GND&lt;/font&gt;" style="text;html=1;align=center;verticalAlign=middle;whiteSpace=wrap;rounded=0;" parent="1" vertex="1">
          <mxGeometry x="290" y="170" width="30" height="10" as="geometry" />
        </mxCell>
        <mxCell id="dfkcqGJk-I-hxeuoEkK4-103" style="edgeStyle=orthogonalEdgeStyle;rounded=0;orthogonalLoop=1;jettySize=auto;html=1;endArrow=none;endFill=0;fillColor=#60a917;strokeColor=#2D7600;strokeWidth=1;" parent="1" source="dfkcqGJk-I-hxeuoEkK4-67" edge="1">
          <mxGeometry relative="1" as="geometry">
            <mxPoint x="320" y="230" as="targetPoint" />
            <Array as="points">
              <mxPoint x="345" y="200" />
              <mxPoint x="320" y="200" />
            </Array>
          </mxGeometry>
        </mxCell>
        <mxCell id="dfkcqGJk-I-hxeuoEkK4-67" value="" style="ellipse;whiteSpace=wrap;html=1;aspect=fixed;" parent="1" vertex="1">
          <mxGeometry x="341.5" y="183" width="7" height="7" as="geometry" />
        </mxCell>
        <mxCell id="dfkcqGJk-I-hxeuoEkK4-68" value="&lt;font style=&quot;font-size: 8px;&quot;&gt;CH0&lt;/font&gt;" style="text;html=1;align=center;verticalAlign=middle;whiteSpace=wrap;rounded=0;" parent="1" vertex="1">
          <mxGeometry x="330" y="170" width="30" height="10" as="geometry" />
        </mxCell>
        <mxCell id="dfkcqGJk-I-hxeuoEkK4-101" style="edgeStyle=orthogonalEdgeStyle;rounded=0;orthogonalLoop=1;jettySize=auto;html=1;entryX=0.5;entryY=0;entryDx=0;entryDy=0;endArrow=none;endFill=0;fillColor=#6a00ff;strokeColor=#3700CC;" parent="1" source="dfkcqGJk-I-hxeuoEkK4-51" target="dfkcqGJk-I-hxeuoEkK4-96" edge="1">
          <mxGeometry relative="1" as="geometry">
            <Array as="points">
              <mxPoint x="270" y="202" />
              <mxPoint x="270" y="220" />
              <mxPoint x="419" y="220" />
            </Array>
          </mxGeometry>
        </mxCell>
        <mxCell id="dfkcqGJk-I-hxeuoEkK4-104" style="edgeStyle=orthogonalEdgeStyle;rounded=0;orthogonalLoop=1;jettySize=auto;html=1;endArrow=none;endFill=0;fillColor=#6a00ff;strokeColor=#3700CC;" parent="1" source="dfkcqGJk-I-hxeuoEkK4-70" edge="1">
          <mxGeometry relative="1" as="geometry">
            <mxPoint x="360" y="220" as="targetPoint" />
            <Array as="points">
              <mxPoint x="375" y="200" />
              <mxPoint x="360" y="200" />
            </Array>
          </mxGeometry>
        </mxCell>
        <mxCell id="dfkcqGJk-I-hxeuoEkK4-70" value="" style="ellipse;whiteSpace=wrap;html=1;aspect=fixed;" parent="1" vertex="1">
          <mxGeometry x="371.5" y="183" width="7" height="7" as="geometry" />
        </mxCell>
        <mxCell id="dfkcqGJk-I-hxeuoEkK4-71" value="&lt;span style=&quot;font-size: 8px;&quot;&gt;CH1&lt;/span&gt;" style="text;html=1;align=center;verticalAlign=middle;whiteSpace=wrap;rounded=0;" parent="1" vertex="1">
          <mxGeometry x="360" y="170" width="30" height="10" as="geometry" />
        </mxCell>
        <mxCell id="dfkcqGJk-I-hxeuoEkK4-105" style="edgeStyle=orthogonalEdgeStyle;rounded=0;orthogonalLoop=1;jettySize=auto;html=1;endArrow=none;endFill=0;fillColor=#d80073;strokeColor=#A50040;" parent="1" source="dfkcqGJk-I-hxeuoEkK4-73" edge="1">
          <mxGeometry relative="1" as="geometry">
            <mxPoint x="350" y="240" as="targetPoint" />
            <Array as="points">
              <mxPoint x="405" y="210" />
              <mxPoint x="350" y="210" />
            </Array>
          </mxGeometry>
        </mxCell>
        <mxCell id="dfkcqGJk-I-hxeuoEkK4-73" value="" style="ellipse;whiteSpace=wrap;html=1;aspect=fixed;" parent="1" vertex="1">
          <mxGeometry x="401.5" y="183" width="7" height="7" as="geometry" />
        </mxCell>
        <mxCell id="dfkcqGJk-I-hxeuoEkK4-74" value="&lt;span style=&quot;font-size: 8px;&quot;&gt;CH2&lt;/span&gt;" style="text;html=1;align=center;verticalAlign=middle;whiteSpace=wrap;rounded=0;" parent="1" vertex="1">
          <mxGeometry x="390" y="170" width="30" height="10" as="geometry" />
        </mxCell>
        <mxCell id="dfkcqGJk-I-hxeuoEkK4-128" style="edgeStyle=orthogonalEdgeStyle;rounded=0;orthogonalLoop=1;jettySize=auto;html=1;entryX=0.5;entryY=1;entryDx=0;entryDy=0;endArrow=none;endFill=0;fillColor=#e51400;strokeColor=#B20000;" parent="1" source="dfkcqGJk-I-hxeuoEkK4-15" target="dfkcqGJk-I-hxeuoEkK4-35" edge="1">
          <mxGeometry relative="1" as="geometry">
            <Array as="points">
              <mxPoint x="40" y="370" />
              <mxPoint x="153" y="370" />
            </Array>
          </mxGeometry>
        </mxCell>
        <mxCell id="dfkcqGJk-I-hxeuoEkK4-129" style="edgeStyle=orthogonalEdgeStyle;rounded=0;orthogonalLoop=1;jettySize=auto;html=1;entryX=0.5;entryY=1;entryDx=0;entryDy=0;endArrow=none;endFill=0;fillColor=#1ba1e2;strokeColor=#006EAF;" parent="1" source="dfkcqGJk-I-hxeuoEkK4-20" target="dfkcqGJk-I-hxeuoEkK4-39" edge="1">
          <mxGeometry relative="1" as="geometry">
            <Array as="points">
              <mxPoint x="85" y="380" />
              <mxPoint x="182" y="380" />
            </Array>
          </mxGeometry>
        </mxCell>
        <mxCell id="dfkcqGJk-I-hxeuoEkK4-132" value="" style="edgeStyle=orthogonalEdgeStyle;rounded=0;orthogonalLoop=1;jettySize=auto;html=1;entryX=0.5;entryY=0;entryDx=0;entryDy=0;endArrow=none;endFill=0;fillColor=#f0a30a;strokeColor=#BD7000;" parent="1" source="dfkcqGJk-I-hxeuoEkK4-64" target="dfkcqGJk-I-hxeuoEkK4-131" edge="1">
          <mxGeometry relative="1" as="geometry">
            <mxPoint x="305" y="190" as="sourcePoint" />
            <mxPoint x="329" y="290" as="targetPoint" />
            <Array as="points">
              <mxPoint x="305" y="210" />
              <mxPoint x="329" y="210" />
            </Array>
          </mxGeometry>
        </mxCell>
        <mxCell id="dfkcqGJk-I-hxeuoEkK4-131" value="" style="ellipse;whiteSpace=wrap;html=1;aspect=fixed;fillColor=#f0a30a;fontColor=#000000;strokeColor=#BD7000;" parent="1" vertex="1">
          <mxGeometry x="328.25" y="243" width="1" height="1" as="geometry" />
        </mxCell>
        <mxCell id="dfkcqGJk-I-hxeuoEkK4-133" style="edgeStyle=orthogonalEdgeStyle;rounded=0;orthogonalLoop=1;jettySize=auto;html=1;entryX=0;entryY=0.5;entryDx=0;entryDy=0;fillColor=#f0a30a;strokeColor=#BD7000;endArrow=none;endFill=0;" parent="1" target="dfkcqGJk-I-hxeuoEkK4-131" edge="1">
          <mxGeometry relative="1" as="geometry">
            <mxPoint x="215" y="350" as="sourcePoint" />
            <mxPoint x="329.10355339055883" y="243.85355339055883" as="targetPoint" />
            <Array as="points">
              <mxPoint x="215" y="370" />
              <mxPoint x="270" y="370" />
              <mxPoint x="270" y="244" />
            </Array>
          </mxGeometry>
        </mxCell>
      </root>
    </mxGraphModel>
  </diagram>
</mxfile>
